<svg xmlns="http://www.w3.org/2000/svg" width="44.8" height="44.8" viewBox="0 0 44.8 44.8">
  <g id="Group_9" data-name="Group 9" transform="translate(-1644.6 703.4)">
    <path id="Path_52" data-name="Path 52" d="M0,0H44V44H0Z" transform="translate(1645 -703)" fill="#fff" stroke="#332929" stroke-linejoin="bevel" stroke-width="0.8" opacity="0.09"/>
    <g id="Polygon_67" data-name="Polygon 67" transform="translate(1645 -702)" fill="#fff">
      <path d="M21.5,0l.43,27.72L43,42,21.5,28.56,0,42,21.07,27.72Z" stroke="none"/>
      <path d="M 21.5 0 L 21.93000030517578 27.72000122070312 L 43 42 L 21.5 28.56000137329102 L 0 42 L 21.06999969482422 27.72000122070312 L 21.5 0 Z" stroke="none" fill="#707070"/>
    </g>
    <line id="Line_111" data-name="Line 111" x2="13" transform="translate(1649.5 -695.5)" fill="none" stroke="#707070" stroke-width="1"/>
    <line id="Line_112" data-name="Line 112" x2="13" transform="translate(1649.5 -691.5)" fill="none" stroke="#e80d0d" stroke-width="1"/>
    <line id="Line_113" data-name="Line 113" x2="13" transform="translate(1649.5 -687.5)" fill="none" stroke="#707070" stroke-width="1"/>
    <line id="Line_114" data-name="Line 114" x2="13" transform="translate(1649.5 -683.5)" fill="none" stroke="#e80d0d" stroke-width="1"/>
    <line id="Line_115" data-name="Line 115" x2="13" transform="translate(1649.5 -679.5)" fill="none" stroke="#707070" stroke-width="1"/>
    <line id="Line_116" data-name="Line 116" x2="13" transform="translate(1649.5 -675.5)" fill="none" stroke="#707070" stroke-width="1"/>
    <line id="Line_117" data-name="Line 117" x2="2" transform="translate(1669.5 -695.5)" fill="none" stroke="#707070" stroke-width="1"/>
    <line id="Line_118" data-name="Line 118" x2="2" transform="translate(1673.5 -695.5)" fill="none" stroke="#707070" stroke-width="1"/>
    <line id="Line_119" data-name="Line 119" x2="2" transform="translate(1677.5 -695.5)" fill="none" stroke="#707070" stroke-width="1"/>
    <line id="Line_120" data-name="Line 120" x2="2" transform="translate(1681.5 -695.5)" fill="none" stroke="#707070" stroke-width="1"/>
    <line id="Line_121" data-name="Line 121" x2="2" transform="translate(1685.5 -695.5)" fill="none" stroke="#1e2ce9" stroke-width="1"/>
    <line id="Line_122" data-name="Line 122" x2="2" transform="translate(1669.5 -691.5)" fill="none" stroke="#e80d0d" stroke-width="1"/>
    <line id="Line_123" data-name="Line 123" x2="2" transform="translate(1673.5 -691.5)" fill="none" stroke="#707070" stroke-width="1"/>
    <line id="Line_124" data-name="Line 124" x2="2" transform="translate(1677.5 -691.5)" fill="none" stroke="#707070" stroke-width="1"/>
    <line id="Line_125" data-name="Line 125" x2="2" transform="translate(1681.5 -691.5)" fill="none" stroke="#707070" stroke-width="1"/>
    <line id="Line_126" data-name="Line 126" x2="2" transform="translate(1685.5 -691.5)" fill="none" stroke="#707070" stroke-width="1"/>
    <line id="Line_127" data-name="Line 127" x2="2" transform="translate(1669.5 -687.5)" fill="none" stroke="#707070" stroke-width="1"/>
    <line id="Line_128" data-name="Line 128" x2="2" transform="translate(1673.5 -687.5)" fill="none" stroke="#e80d0d" stroke-width="1"/>
    <line id="Line_129" data-name="Line 129" x2="2" transform="translate(1677.5 -687.5)" fill="none" stroke="#707070" stroke-width="1"/>
    <line id="Line_130" data-name="Line 130" x2="2" transform="translate(1681.5 -687.5)" fill="none" stroke="#707070" stroke-width="1"/>
    <line id="Line_131" data-name="Line 131" x2="2" transform="translate(1685.5 -687.5)" fill="none" stroke="#707070" stroke-width="1"/>
    <line id="Line_132" data-name="Line 132" x2="2" transform="translate(1669.5 -683.5)" fill="none" stroke="#707070" stroke-width="1"/>
    <line id="Line_133" data-name="Line 133" x2="2" transform="translate(1673.5 -683.5)" fill="none" stroke="#707070" stroke-width="1"/>
    <line id="Line_134" data-name="Line 134" x2="2" transform="translate(1677.5 -683.5)" fill="none" stroke="#e80d0d" stroke-width="1"/>
    <line id="Line_135" data-name="Line 135" x2="2" transform="translate(1681.5 -683.5)" fill="none" stroke="#707070" stroke-width="1"/>
    <line id="Line_136" data-name="Line 136" x2="2" transform="translate(1685.5 -683.5)" fill="none" stroke="#707070" stroke-width="1"/>
    <line id="Line_137" data-name="Line 137" x2="2" transform="translate(1669.5 -679.5)" fill="none" stroke="#707070" stroke-width="1"/>
    <line id="Line_138" data-name="Line 138" x2="2" transform="translate(1673.5 -679.5)" fill="none" stroke="#707070" stroke-width="1"/>
    <line id="Line_139" data-name="Line 139" x2="2" transform="translate(1677.5 -679.5)" fill="none" stroke="#707070" stroke-width="1"/>
    <line id="Line_140" data-name="Line 140" x2="2" transform="translate(1681.5 -679.5)" fill="none" stroke="#e80d0d" stroke-width="1"/>
    <line id="Line_141" data-name="Line 141" x2="2" transform="translate(1685.5 -679.5)" fill="none" stroke="#707070" stroke-width="1"/>
    <line id="Line_142" data-name="Line 142" x2="2" transform="translate(1669.5 -675.5)" fill="none" stroke="#707070" stroke-width="1"/>
    <line id="Line_143" data-name="Line 143" x2="2" transform="translate(1673.5 -675.5)" fill="none" stroke="#707070" stroke-width="1"/>
    <line id="Line_144" data-name="Line 144" x2="2" transform="translate(1677.5 -675.5)" fill="none" stroke="#707070" stroke-width="1"/>
    <line id="Line_145" data-name="Line 145" x2="2" transform="translate(1681.5 -675.5)" fill="none" stroke="#707070" stroke-width="1"/>
    <line id="Line_146" data-name="Line 146" x2="2" transform="translate(1685.5 -675.5)" fill="none" stroke="#e80d0d" stroke-width="1"/>
    <text id="log" transform="translate(1659 -669)" fill="#707070" font-size="8" font-family="LucidaCalligraphy-Italic, Lucida Calligraphy" font-style="italic"><tspan x="-6.145" y="7">l</tspan><tspan y="7" fill="#e80d0d">o</tspan><tspan y="7">g</tspan></text>
  </g>
</svg>
